<?xml version="1.0" standalone="no"?><!DOCTYPE svg PUBLIC "-//W3C//DTD SVG 1.1//EN" "http://www.w3.org/Graphics/SVG/1.1/DTD/svg11.dtd"><svg t="1612073135621" class="icon" viewBox="0 0 1024 1024" version="1.1" xmlns="http://www.w3.org/2000/svg" p-id="2065" xmlns:xlink="http://www.w3.org/1999/xlink" width="200" height="200"><defs><style type="text/css"></style></defs><path d="M126.2 360.2c12 12 31.3 12.5 44 1.2C264.7 277.1 385.3 231 513 231s248.3 46.1 342.9 130.3c12.7 11.3 32 10.8 44-1.2 13-13 12.5-34.2-1.2-46.4C796.1 222.5 661 167 513 167s-283.1 55.5-385.6 146.7c-13.7 12.2-14.2 33.5-1.2 46.5zM347.7 581.7c11.3 11.3 29.2 12.6 41.8 3C423.8 558.5 466.6 543 513 543c46.4 0 89.2 15.5 123.4 41.7 12.7 9.7 30.6 8.3 41.8-3 13.8-13.8 12.1-36.5-3.5-48.3-45-34.1-101-54.4-161.8-54.4-60.8 0-116.9 20.2-161.8 54.4-15.5 11.8-17.2 34.5-3.4 48.3z" fill="#691FFF" p-id="2066"></path><path d="M236.6 470.6l0.4 0.4c11.8 11.8 30.6 12.3 43.3 1.5 62.8-53.3 144-85.5 232.7-85.5s169.9 32.2 232.7 85.5c12.7 10.8 31.5 10.3 43.3-1.5l0.4-0.4c13.1-13.1 12.2-34.7-1.9-46.7-74-63-169.8-100.9-274.5-100.9s-200.5 37.9-274.5 100.8c-14.2 12.1-15.1 33.6-1.9 46.8z" fill="#691FFF" p-id="2067"></path><path d="M513 699c26.5 0 48 21.5 48 48s-21.5 48-48 48-48-21.5-48-48 21.5-48 48-48m0-64c-61.9 0-112 50.1-112 112s50.1 112 112 112 112-50.1 112-112-50.1-112-112-112z" fill="#E04DFF" p-id="2068"></path></svg>